<svg xmlns="http://www.w3.org/2000/svg" viewBox="0 0 240 120" width="240" height="120">
  <!-- Office chair (moving platform) — photocopy version -->
  <defs>
    <filter id="ink-noise" x="-2%" y="-2%" width="104%" height="104%">
      <feTurbulence type="fractalNoise" baseFrequency="1.6" numOctaves="2" seed="31" result="n"/>
      <feColorMatrix in="n" values="0 0 0 0 0  0 0 0 0 0  0 0 0 0 0  0 0 0 0.30 0" result="s"/>
      <feComposite in="s" in2="SourceGraphic" operator="in" result="clipped"/>
      <feMerge>
        <feMergeNode in="SourceGraphic"/>
        <feMergeNode in="clipped"/>
      </feMerge>
    </filter>
  </defs>

  <!-- v3: no paper backing, no drop shadow. Chair on world page. -->

  <!-- ─── Red registration ghost ─── -->
  <g opacity="0.40" transform="translate(-3 -3)">
    <ellipse cx="120" cy="48" rx="98" ry="16" fill="#b22b1f"/>
    <path d="M 86 18 Q 120 8 154 18 L 154 38 L 86 38 Z" fill="#b22b1f"/>
  </g>

  <!-- ─── Chair ink ─── -->
  <g id="ink" filter="url(#ink-noise)">
    <!-- backrest -->
    <path d="M 86 16 Q 120 6 154 16 L 154 36 L 86 36 Z" fill="#0e0a05" stroke="#0e0a05" stroke-width="2" stroke-linejoin="round"/>
    <line x1="98" y1="22" x2="98" y2="34" stroke="#5c554a" stroke-width="1.2"/>
    <line x1="120" y1="20" x2="120" y2="35" stroke="#5c554a" stroke-width="1.2"/>
    <line x1="142" y1="22" x2="142" y2="34" stroke="#5c554a" stroke-width="1.2"/>

    <!-- seat (bounce surface) -->
    <ellipse cx="120" cy="48" rx="98" ry="16" fill="#0e0a05" stroke="#0e0a05" stroke-width="2"/>
    <ellipse cx="120" cy="44" rx="92" ry="12" fill="#5c554a"/>
    <ellipse cx="120" cy="44" rx="80" ry="9" fill="none" stroke="#3a352c" stroke-width="0.8"/>

    <!-- armrests -->
    <rect x="18" y="46" width="16" height="7" rx="2" fill="#0e0a05"/>
    <rect x="206" y="46" width="16" height="7" rx="2" fill="#0e0a05"/>

    <!-- gas lift -->
    <rect x="114" y="64" width="12" height="24" fill="#0e0a05"/>
    <ellipse cx="120" cy="64" rx="7" ry="2.5" fill="#5c554a"/>

    <!-- star base -->
    <g stroke="#0e0a05" stroke-width="1.5" stroke-linejoin="round">
      <path d="M 120 88 L 64 104 L 80 110 Z" fill="#0e0a05"/>
      <path d="M 120 88 L 98 110 L 108 114 L 120 102 Z" fill="#0e0a05"/>
      <path d="M 120 88 L 120 110 L 132 110 Z" fill="#3a352c"/>
      <path d="M 120 88 L 142 110 L 152 114 L 146 100 Z" fill="#0e0a05"/>
      <path d="M 120 88 L 176 104 L 160 110 Z" fill="#0e0a05"/>
    </g>

    <!-- wheels (round) -->
    <circle cx="62" cy="104" r="4.5" fill="#0e0a05" stroke="#5c554a" stroke-width="1"/>
    <circle cx="96" cy="112" r="4.5" fill="#0e0a05" stroke="#5c554a" stroke-width="1"/>
    <circle cx="120" cy="114" r="4.5" fill="#0e0a05" stroke="#5c554a" stroke-width="1"/>
    <circle cx="144" cy="112" r="4.5" fill="#0e0a05" stroke="#5c554a" stroke-width="1"/>
    <circle cx="178" cy="104" r="4.5" fill="#0e0a05" stroke="#5c554a" stroke-width="1"/>
  </g>
</svg>
