<svg xmlns="http://www.w3.org/2000/svg" viewBox="0 0 280 100" width="280" height="100">
  <!-- Office desk — photocopy, torn from a memo -->
  <defs>
    <filter id="torn" x="-5%" y="-5%" width="110%" height="110%">
      <feTurbulence type="fractalNoise" baseFrequency="0.45" numOctaves="2" seed="21" result="n"/>
      <feDisplacementMap in="SourceGraphic" in2="n" scale="5"/>
    </filter>
    <filter id="ink-noise" x="-2%" y="-2%" width="104%" height="104%">
      <feTurbulence type="fractalNoise" baseFrequency="1.6" numOctaves="2" seed="17" result="n"/>
      <feColorMatrix in="n" values="0 0 0 0 0  0 0 0 0 0  0 0 0 0 0  0 0 0 0.30 0" result="s"/>
      <feComposite in="s" in2="SourceGraphic" operator="in"/>
      <feComposite in="SourceGraphic" in2="s" operator="over"/>
    </filter>
  </defs>

  <!-- shadow + torn paper backing -->
  <path d="M 14 36 L 268 30 L 270 92 L 12 88 Z"
        fill="rgba(0,0,0,0.32)" transform="translate(4 5)" filter="url(#torn)"/>
  <path d="M 14 36 L 268 30 L 270 92 L 12 88 Z"
        fill="#ebe4d0" stroke="#1a140a" stroke-width="0.8" stroke-opacity="0.28"
        filter="url(#torn)"/>
  <!-- streak smudges -->
  <rect x="40" y="68" width="200" height="1.6" fill="#1a140a" opacity="0.08"/>

  <!-- ─── Red registration ghost ─── -->
  <g opacity="0.40" transform="translate(-3 -3)">
    <rect x="22" y="48" width="240" height="26" fill="#b22b1f"/>
    <rect x="62" y="20" width="48" height="34" fill="#b22b1f"/>  <!-- monitor -->
    <path d="M 188 12 L 208 26 L 198 32 L 178 18 Z" fill="#b22b1f"/> <!-- lamp -->
  </g>

  <!-- ─── Ink figure ─── -->
  <g id="ink" filter="url(#ink-noise)">
    <!-- desktop slab -->
    <rect x="22" y="48" width="240" height="26" rx="2" fill="#0e0a05"/>
    <!-- gray highlight rail -->
    <rect x="26" y="52" width="232" height="3" fill="#5c554a"/>
    <!-- drawer line -->
    <line x1="30" y1="68" x2="254" y2="68" stroke="#5c554a" stroke-width="1" opacity="0.6"/>
    <!-- legs -->
    <rect x="28" y="74" width="6" height="18" fill="#0e0a05"/>
    <rect x="250" y="74" width="6" height="18" fill="#0e0a05"/>

    <!-- ── monitor ── -->
    <g transform="translate(60 14)">
      <rect x="0" y="0" width="48" height="36" rx="2" fill="#0e0a05"/>
      <rect x="3" y="3" width="42" height="30" fill="#3a352c"/>
      <!-- spreadsheet grid -->
      <line x1="3" y1="11" x2="45" y2="11" stroke="#8b8474" stroke-width="0.5"/>
      <line x1="3" y1="19" x2="45" y2="19" stroke="#8b8474" stroke-width="0.5"/>
      <line x1="3" y1="27" x2="45" y2="27" stroke="#8b8474" stroke-width="0.5"/>
      <line x1="17" y1="3" x2="17" y2="33" stroke="#8b8474" stroke-width="0.5"/>
      <line x1="31" y1="3" x2="31" y2="33" stroke="#8b8474" stroke-width="0.5"/>
      <!-- a red error cell -->
      <rect x="18" y="12" width="13" height="7" fill="#b22b1f"/>
      <!-- stand -->
      <rect x="20" y="36" width="8" height="4" fill="#0e0a05"/>
      <rect x="12" y="40" width="24" height="2.5" rx="1" fill="#0e0a05"/>
    </g>

    <!-- ── papers ── -->
    <g transform="translate(126 30)">
      <rect x="0" y="0" width="32" height="16" fill="#ebe4d0" stroke="#0e0a05" stroke-width="1.5"/>
      <line x1="4" y1="4" x2="22" y2="4" stroke="#0e0a05" stroke-width="0.8" opacity="0.6"/>
      <line x1="4" y1="8" x2="26" y2="8" stroke="#0e0a05" stroke-width="0.8" opacity="0.6"/>
      <line x1="4" y1="12" x2="18" y2="12" stroke="#0e0a05" stroke-width="0.8" opacity="0.6"/>
      <!-- tiny URGENT stamp on paper -->
      <rect x="14" y="6" width="14" height="6" fill="none" stroke="#b22b1f" stroke-width="1"/>
    </g>

    <!-- ── coffee mug ── -->
    <g transform="translate(168 34)">
      <rect x="0" y="0" width="12" height="12" fill="#ebe4d0" stroke="#0e0a05" stroke-width="1.5"/>
      <path d="M 12 3 Q 17 6 12 9" fill="none" stroke="#0e0a05" stroke-width="1.5"/>
      <ellipse cx="6" cy="2" rx="4" ry="1" fill="#0e0a05"/>
    </g>

    <!-- ── lamp ── -->
    <g transform="translate(196 6)">
      <ellipse cx="22" cy="42" rx="11" ry="2.5" fill="#0e0a05"/>
      <path d="M 22 42 Q 26 26 34 18" fill="none" stroke="#0e0a05" stroke-width="3" stroke-linecap="round"/>
      <path d="M 30 6 L 48 20 L 38 28 L 22 14 Z" fill="#0e0a05" stroke="#0e0a05" stroke-width="1.5" stroke-linejoin="round"/>
      <!-- light beam -->
      <path d="M 34 28 L 56 46 L 30 46 Z" fill="#ebe4d0" opacity="0.4"/>
    </g>
  </g>
</svg>
