<svg xmlns="http://www.w3.org/2000/svg" viewBox="0 0 140 120" width="140" height="120">
  <!-- URGENT email — photocopy version -->
  <defs>
    <filter id="torn" x="-5%" y="-5%" width="110%" height="110%">
      <feTurbulence type="fractalNoise" baseFrequency="0.45" numOctaves="2" seed="41" result="n"/>
      <feDisplacementMap in="SourceGraphic" in2="n" scale="4"/>
    </filter>
    <filter id="ink-noise" x="-2%" y="-2%" width="104%" height="104%">
      <feTurbulence type="fractalNoise" baseFrequency="1.6" numOctaves="2" seed="37" result="n"/>
      <feColorMatrix in="n" values="0 0 0 0 0  0 0 0 0 0  0 0 0 0 0  0 0 0 0.30 0" result="s"/>
      <feComposite in="s" in2="SourceGraphic" operator="in"/>
      <feComposite in="SourceGraphic" in2="s" operator="over"/>
    </filter>
  </defs>

  <!-- pulsing red rings -->
  <circle cx="70" cy="62" r="58" fill="none" stroke="#b22b1f" stroke-width="2" opacity="0.30"/>
  <circle cx="70" cy="62" r="50" fill="none" stroke="#b22b1f" stroke-width="2" opacity="0.50"/>

  <!-- torn paper backing -->
  <path d="M 18 32 L 122 32 L 122 96 L 18 96 Z"
        fill="#ebe4d0" stroke="#1a140a" stroke-width="0.8" stroke-opacity="0.28"
        filter="url(#torn)"/>

  <!-- envelope ink -->
  <g filter="url(#ink-noise)">
    <!-- envelope back -->
    <rect x="22" y="38" width="96" height="56" rx="2" fill="none" stroke="#0e0a05" stroke-width="2.5"/>
    <!-- flap -->
    <path d="M 22 38 L 70 70 L 118 38 Z" fill="none" stroke="#0e0a05" stroke-width="2.2"/>
    <!-- inner lines -->
    <line x1="22" y1="38" x2="70" y2="68" stroke="#0e0a05" stroke-width="1.5" opacity="0.7"/>
    <line x1="118" y1="38" x2="70" y2="68" stroke="#0e0a05" stroke-width="1.5" opacity="0.7"/>

    <!-- URGENT stamp -->
    <g transform="rotate(-8 70 82)">
      <rect x="36" y="72" width="68" height="20" fill="none" stroke="#b22b1f" stroke-width="2.5"/>
      <text x="70" y="86" font-family="Inter, sans-serif" font-size="13" font-weight="800"
            fill="#b22b1f" text-anchor="middle" letter-spacing="1.5">URGENT</text>
    </g>

    <!-- red ! badge -->
    <circle cx="114" cy="26" r="16" fill="#b22b1f" stroke="#0e0a05" stroke-width="2"/>
    <text x="114" y="33" font-family="Inter, sans-serif" font-size="22" font-weight="900"
          fill="#ebe4d0" text-anchor="middle">!</text>

    <!-- motion lines -->
    <g stroke="#b22b1f" stroke-width="2.2" stroke-linecap="round">
      <line x1="4" y1="22" x2="12" y2="30"/>
      <line x1="4" y1="66" x2="14" y2="66"/>
      <line x1="12" y1="106" x2="20" y2="98"/>
    </g>
  </g>
</svg>
