<svg xmlns="http://www.w3.org/2000/svg" viewBox="0 0 240 110" width="240" height="110">
  <!-- Printer v3 — no paper backing, no drop shadow. Just ink on world page. -->
  <defs>
    <filter id="ink-noise" x="-2%" y="-2%" width="104%" height="104%">
      <feTurbulence type="fractalNoise" baseFrequency="1.6" numOctaves="2" seed="23" result="n"/>
      <feColorMatrix in="n" values="0 0 0 0 0  0 0 0 0 0  0 0 0 0 0  0 0 0 0.30 0" result="s"/>
      <feComposite in="s" in2="SourceGraphic" operator="in" result="clipped"/>
      <feMerge>
        <feMergeNode in="SourceGraphic"/>
        <feMergeNode in="clipped"/>
      </feMerge>
    </filter>
  </defs>

  <!-- paper sheets shooting up (the "spring" feeling) -->
  <g>
    <path d="M 78 38 L 86 8 L 100 16 L 92 44 Z" fill="#ebe4d0" stroke="#0e0a05" stroke-width="1.5" stroke-linejoin="round"/>
    <path d="M 108 36 L 116 6 L 132 12 L 126 42 Z" fill="#ebe4d0" stroke="#0e0a05" stroke-width="1.5" stroke-linejoin="round"/>
    <path d="M 138 38 L 146 16 L 160 10 L 156 42 Z" fill="#ebe4d0" stroke="#0e0a05" stroke-width="1.5" stroke-linejoin="round"/>
    <!-- lines + a red URGENT stamp on one paper -->
    <line x1="86" y1="20" x2="98" y2="24" stroke="#0e0a05" stroke-width="0.7" opacity="0.7"/>
    <line x1="86" y1="28" x2="96" y2="32" stroke="#0e0a05" stroke-width="0.7" opacity="0.7"/>
    <line x1="86" y1="36" x2="94" y2="40" stroke="#0e0a05" stroke-width="0.7" opacity="0.7"/>
    <line x1="114" y1="18" x2="128" y2="22" stroke="#0e0a05" stroke-width="0.7" opacity="0.7"/>
    <line x1="113" y1="26" x2="128" y2="30" stroke="#0e0a05" stroke-width="0.7" opacity="0.7"/>
    <line x1="113" y1="34" x2="126" y2="38" stroke="#0e0a05" stroke-width="0.7" opacity="0.7"/>
    <g transform="rotate(-12 122 28)">
      <rect x="116" y="22" width="14" height="6" fill="none" stroke="#b22b1f" stroke-width="1"/>
    </g>
    <line x1="142" y1="22" x2="156" y2="20" stroke="#0e0a05" stroke-width="0.7" opacity="0.7"/>
    <line x1="142" y1="30" x2="156" y2="28" stroke="#0e0a05" stroke-width="0.7" opacity="0.7"/>
    <line x1="142" y1="36" x2="154" y2="34" stroke="#0e0a05" stroke-width="0.7" opacity="0.7"/>
  </g>

  <!-- ─── Red registration ghost ─── -->
  <g opacity="0.40" transform="translate(-3 -3)">
    <rect x="14" y="56" width="216" height="44" fill="#b22b1f"/>
    <rect x="74" y="40" width="76" height="12" fill="#b22b1f"/>
  </g>

  <!-- ─── Printer ink ─── -->
  <g id="ink" filter="url(#ink-noise)">
    <!-- top sloped lid -->
    <path d="M 22 56 L 70 42 L 152 42 L 218 56 Z" fill="#3a352c" stroke="#0e0a05" stroke-width="2" stroke-linejoin="round"/>
    <!-- main body -->
    <rect x="14" y="56" width="216" height="38" rx="3" fill="#5c554a" stroke="#0e0a05" stroke-width="2"/>
    <!-- darker base lip -->
    <rect x="14" y="88" width="216" height="6" fill="#0e0a05"/>
    <!-- paper out slot — accent (the bounce mouth) -->
    <rect x="78" y="38" width="74" height="10" fill="#b22b1f" stroke="#0e0a05" stroke-width="1.5"/>
    <rect x="80" y="40" width="70" height="3" fill="#ebe4d0"/>

    <!-- LCD (gray on photocopy) -->
    <rect x="28" y="64" width="40" height="14" rx="1" fill="#0e0a05"/>
    <rect x="30" y="66" width="36" height="10" fill="#8b8474"/>
    <rect x="32" y="68" width="6" height="2.5" fill="#0e0a05"/>
    <rect x="40" y="68" width="14" height="2.5" fill="#0e0a05"/>
    <rect x="32" y="72" width="22" height="2" fill="#0e0a05"/>

    <!-- 3 buttons — red, black, black (red breaks the monotone just enough) -->
    <circle cx="92" cy="71" r="3.6" fill="#b22b1f" stroke="#0e0a05" stroke-width="1"/>
    <circle cx="106" cy="71" r="3.6" fill="#0e0a05"/>
    <circle cx="120" cy="71" r="3.6" fill="#0e0a05"/>

    <!-- brand plaque -->
    <rect x="142" y="66" width="78" height="16" rx="1" fill="#0e0a05"/>
    <text x="181" y="78" font-family="Courier, monospace" font-size="9" font-weight="700"
          fill="#ebe4d0" text-anchor="middle" letter-spacing="1.4">XEROX 5400</text>
  </g>
</svg>
