<svg xmlns="http://www.w3.org/2000/svg" viewBox="0 0 256 320" width="256" height="320">
  <!-- Worker v3 — paper silhouette drawn as explicit body-shape parts.
       The cutout is NOT generated by feMorphology (which produced a
       blob that read as a rectangle). Instead we union real shapes
       (head ellipse + torso rect + arm rects + briefcase rect + leg
       rects), all in cream paper color, then apply a torn-edge
       displacement filter to the group. The result is a true
       body-shaped paper cutout that reads clearly in any browser. -->
  <defs>
    <!-- Torn-edge filter for the paper silhouette shapes -->
    <filter id="torn-paper" x="-10%" y="-10%" width="120%" height="120%">
      <feTurbulence type="fractalNoise" baseFrequency="0.40" numOctaves="2" seed="11" result="n"/>
      <feDisplacementMap in="SourceGraphic" in2="n" scale="6"/>
    </filter>

    <!-- Soft drop shadow shaped to the cutout -->
    <filter id="paper-shadow" x="-15%" y="-15%" width="130%" height="130%">
      <feGaussianBlur in="SourceAlpha" stdDeviation="3" result="b"/>
      <feOffset in="b" dx="3" dy="5" result="o"/>
      <feComponentTransfer in="o" result="s">
        <feFuncA type="linear" slope="0.50"/>
      </feComponentTransfer>
      <feMerge>
        <feMergeNode in="s"/>
        <feMergeNode in="SourceGraphic"/>
      </feMerge>
    </filter>

    <!-- Ink noise (toner stipple) -->
    <filter id="ink-noise" x="-2%" y="-2%" width="104%" height="104%">
      <feTurbulence type="fractalNoise" baseFrequency="1.6" numOctaves="2" seed="9" result="n"/>
      <feColorMatrix in="n" values="0 0 0 0 0  0 0 0 0 0  0 0 0 0 0  0 0 0 0.32 0" result="stipple"/>
      <feComposite in="stipple" in2="SourceGraphic" operator="in"/>
      <feComposite in="SourceGraphic" in2="stipple" operator="over"/>
    </filter>
  </defs>

  <!-- ─── Group 1: paper-cutout silhouette (cream, body-shaped) ──────
       Each shape sits a touch wider/taller than the underlying ink
       part so it forms a visible cream "border" around the figure.
       Explicit dark stroke (#3a2f1a) gives the visible torn cut edge.
       The whole group goes through the torn-edge displacement so the
       outlines ragged correctly. -->
  <g filter="url(#paper-shadow)">
    <g filter="url(#torn-paper)" fill="#f7f0d8" stroke="#3a2f1a" stroke-width="3" stroke-linejoin="round" paint-order="stroke fill">
      <!-- head + tuft (vertical ellipse covering both) -->
      <ellipse cx="130" cy="100" rx="36" ry="42"/>
      <!-- tuft cap on top -->
      <ellipse cx="112" cy="64" rx="20" ry="20"/>
      <!-- torso + arms — wide rect covering both arms hanging from shoulders -->
      <rect x="54" y="118" width="160" height="120" rx="8"/>
      <!-- briefcase extension on the right -->
      <rect x="170" y="198" width="80" height="62" rx="6"/>
      <!-- left leg -->
      <rect x="92" y="222" width="32" height="76" rx="6"/>
      <!-- right leg -->
      <rect x="132" y="222" width="32" height="76" rx="6"/>
    </g>
  </g>

  <!-- ─── Group 2: red registration-shift ghost (offset -3,-3) ────── -->
  <g opacity="0.50" transform="translate(-3 -3)">
    <rect x="100" y="226" width="14" height="58" fill="#b22b1f"/>
    <rect x="140" y="226" width="14" height="58" fill="#b22b1f"/>
    <ellipse cx="106" cy="288" rx="14" ry="5" fill="#b22b1f"/>
    <ellipse cx="146" cy="288" rx="14" ry="5" fill="#b22b1f"/>
    <path d="M 84 226 L 172 226 L 180 130 L 76 130 Z" fill="#b22b1f"/>
    <rect x="64" y="130" width="14" height="92" fill="#b22b1f"/>
    <path d="M 183 130 L 197 130 L 209 208 L 195 208 Z" fill="#b22b1f"/>
    <circle cx="128" cy="102" r="28" fill="#b22b1f"/>
    <rect x="176" y="208" width="62" height="44" fill="#b22b1f"/>
  </g>

  <!-- ─── Group 3: main ink figure ─── -->
  <g id="ink" filter="url(#ink-noise)">
    <!-- legs -->
    <rect x="103" y="226" width="14" height="60" fill="#0e0a05"/>
    <rect x="143" y="226" width="14" height="60" fill="#0e0a05"/>
    <ellipse cx="110" cy="290" rx="14" ry="5" fill="#0e0a05"/>
    <ellipse cx="150" cy="290" rx="14" ry="5" fill="#0e0a05"/>

    <!-- torso -->
    <path d="M 87 226 L 175 226 L 183 130 L 79 130 Z" fill="#0e0a05"/>
    <path d="M 118 130 L 142 130 L 130 162 Z" fill="#f7f0d8"/>
    <path d="M 87 226 L 122 162 L 114 130 L 79 130 Z" fill="#3a352c"/>
    <path d="M 175 226 L 138 162 L 146 130 L 183 130 Z" fill="#3a352c"/>
    <rect x="160" y="174" width="10" height="6" fill="#b22b1f"/>

    <!-- tie -->
    <path d="M 122 162 L 138 162 L 140 218 L 130 230 L 120 218 Z" fill="#b22b1f"/>
    <rect x="121" y="130" width="18" height="8" fill="#7a1a13"/>

    <!-- arms -->
    <rect x="64" y="130" width="14" height="92" fill="#0e0a05"/>
    <circle cx="71" cy="226" r="9" fill="#5c554a"/>
    <path d="M 183 130 L 197 130 L 209 208 L 195 208 Z" fill="#0e0a05"/>
    <circle cx="202" cy="212" r="9" fill="#5c554a"/>

    <!-- briefcase -->
    <path d="M 180 204 Q 202 192 224 204" fill="none" stroke="#0e0a05" stroke-width="3" stroke-linecap="round"/>
    <rect x="176" y="208" width="62" height="44" fill="#5c554a" stroke="#0e0a05" stroke-width="2.4"/>
    <line x1="176" y1="220" x2="238" y2="220" stroke="#0e0a05" stroke-width="1.5"/>
    <rect x="200" y="216" width="12" height="8" fill="#0e0a05"/>
    <rect x="180" y="212" width="54" height="3" fill="#8b8474"/>

    <!-- head -->
    <circle cx="130" cy="102" r="28" fill="#8b8474" stroke="#0e0a05" stroke-width="2"/>
    <ellipse cx="104" cy="102" rx="4" ry="6" fill="#5c554a"/>
    <ellipse cx="156" cy="102" rx="4" ry="6" fill="#5c554a"/>

    <!-- hair -->
    <path d="M 102 96 A 28 28 0 0 1 158 96 L 157 112 Q 130 105 103 112 Z" fill="#0e0a05"/>
    <path d="M 104 88 Q 116 100 142 100 L 142 104 Q 124 104 110 108 Z" fill="#000"/>
    <path d="M 124 76 Q 116 56 99 50 Q 110 66 122 84 Z" fill="#0e0a05"/>

    <!-- face -->
    <path d="M 113 108 Q 119 106 124 108" fill="none" stroke="#0e0a05" stroke-width="2" stroke-linecap="round"/>
    <path d="M 136 108 Q 141 106 147 108" fill="none" stroke="#0e0a05" stroke-width="2" stroke-linecap="round"/>
    <ellipse cx="118" cy="115" rx="3" ry="2" fill="#0e0a05"/>
    <ellipse cx="142" cy="115" rx="3" ry="2" fill="#0e0a05"/>
    <path d="M 114 120 Q 118 122 122 120" fill="none" stroke="#5c554a" stroke-width="1.2"/>
    <path d="M 138 120 Q 142 122 146 120" fill="none" stroke="#5c554a" stroke-width="1.2"/>
    <path d="M 122 128 Q 130 125 138 128" fill="none" stroke="#0e0a05" stroke-width="1.8" stroke-linecap="round"/>
  </g>
</svg>
